<?xml version="1.0" encoding="UTF-8" standalone="no"?>
<svg
   xmlns:dc="http://purl.org/dc/elements/1.1/"
   xmlns:cc="http://creativecommons.org/ns#"
   xmlns:rdf="http://www.w3.org/1999/02/22-rdf-syntax-ns#"
   xmlns:svg="http://www.w3.org/2000/svg"
   xmlns="http://www.w3.org/2000/svg"
   xmlns:sodipodi="http://sodipodi.sourceforge.net/DTD/sodipodi-0.dtd"
   xmlns:inkscape="http://www.inkscape.org/namespaces/inkscape"
   version="1.1"
   x="0px"
   y="0px"
   preserveAspectRatio="xMidYMid meet"
   viewBox="0 0 960 480"
   width="960"
   height="480"
   enable-background="new 0 0 800 300"
   xml:space="preserve"
   id="svg3344"
   inkscape:version="0.91 r13725"
   sodipodi:docname="land.svg"><metadata
     id="metadata3446"><rdf:RDF><cc:Work
         rdf:about=""><dc:format>image/svg+xml</dc:format><dc:type
           rdf:resource="http://purl.org/dc/dcmitype/StillImage" /><dc:title></dc:title></cc:Work></rdf:RDF></metadata><sodipodi:namedview
     pagecolor="#ffffff"
     bordercolor="#666666"
     borderopacity="1"
     objecttolerance="10"
     gridtolerance="10"
     guidetolerance="10"
     inkscape:pageopacity="0"
     inkscape:pageshadow="2"
     inkscape:window-width="1366"
     inkscape:window-height="705"
     id="namedview3444"
     showgrid="false"
     inkscape:zoom="0.3784375"
     inkscape:cx="783.60672"
     inkscape:cy="109.57905"
     inkscape:window-x="-8"
     inkscape:window-y="-8"
     inkscape:window-maximized="1"
     inkscape:current-layer="svg3344"
     showguides="false" /><defs
     id="defs3346"><linearGradient
       id="gradient-oval10"
       x1="429.5"
       y1="10"
       x2="429.5"
       y2="30"
       gradientUnits="userSpaceOnUse"><stop
         offset="0"
         stop-color="rgb(224, 235, 232)"
         stop-opacity="1"
         id="stop3349" /><stop
         offset="1"
         stop-color="rgb(255, 255, 255)"
         stop-opacity="1"
         id="stop3351" /></linearGradient><linearGradient
       id="gradient-oval9"
       x1="228"
       y1="86"
       x2="228"
       y2="112"
       gradientUnits="userSpaceOnUse"><stop
         offset="0"
         stop-color="rgb(224, 235, 232)"
         stop-opacity="1"
         id="stop3354" /><stop
         offset="1"
         stop-color="rgb(255, 255, 255)"
         stop-opacity="1"
         id="stop3356" /></linearGradient></defs><ellipse
     style="opacity:1;fill:#f0f0f0;fill-opacity:1;stroke:none;stroke-width:1.95599699;stroke-linecap:square;stroke-linejoin:round;stroke-miterlimit:4;stroke-dasharray:none;stroke-opacity:1"
     id="ellipse4208"
     cx="-469.21793"
     cy="297.6481"
     rx="3.5409386"
     ry="9.2726688"
     transform="scale(-1,1)" /><g
     id="brownHouse"
     transform="matrix(-1.654227,0,0,1.4435296,1179.8541,267.56358)"><rect
       id="rectangle15"
       x="411"
       y="37"
       width="23"
       height="23"
       style="fill:#67a1a3;fill-opacity:1;stroke:none" /><rect
       id="rectangle16"
       x="-432"
       y="41"
       width="6"
       height="6"
       style="fill:#c6f7fb;stroke:none"
       transform="scale(-1,1)" /><rect
       id="rectangle17"
       x="-420"
       y="41"
       width="6"
       height="6"
       style="fill:#c6f7fb;stroke:none"
       transform="scale(-1,1)" /><rect
       id="rectangle18"
       x="-432"
       y="51"
       width="6"
       height="6"
       style="fill:#c6f7fb;stroke:none"
       transform="scale(-1,1)" /><rect
       id="rectangle19"
       x="-420"
       y="51"
       width="6"
       height="9"
       style="fill:#70595e;stroke:none"
       transform="scale(-1,1)" /><path
       id="polygon2"
       d="m 422.5,25.38 15.44,12.41 -30.88,0 15.44,-12.41 z m 0,0"
       inkscape:connector-curvature="0"
       style="fill:#70595e;stroke:none" /><rect
       id="rectangle20"
       x="426"
       y="26"
       width="6.5"
       height="9"
       style="fill:#70595e;stroke:none" /></g><g
     id="hills"
     transform="matrix(2.5396825,-7.1170845e-4,0,1.2517418,-538.41825,191.32704)"><path
       id="backHill"
       d="m 212,231 c 57.60862,-28.2051 85.24732,-101.05526 189.62732,-101.05526 104.38,0 122.42669,68.7682 188.37268,101.05526 l -189,0 z"
       inkscape:connector-curvature="0"
       style="fill:#3ea956;fill-opacity:1;stroke:none"
       sodipodi:nodetypes="csccc" /></g><g
     id="yellowTree"
     transform="matrix(1.654227,0,0,1.4435296,591.27432,147.5868)"><ellipse
       id="oval"
       cx="104"
       cy="215.5"
       rx="12"
       ry="5.5"
       style="fill:#378c4f;fill-opacity:1;stroke:none" /><path
       id="bezier"
       d="m 89.5,201.5 13.38,-56 15.62,56 -29,0 z m 0,0"
       inkscape:connector-curvature="0"
       style="fill:#f6d546;stroke:none" /><rect
       id="rectangle"
       x="103"
       y="178"
       width="2"
       height="37"
       style="fill:#af946c;stroke:none" /><path
       id="bezier2"
       d="m 103.5,187.34 5.73,-5.84 1.27,1.3 -6.36,6.48 -0.43,0.22 -0.21,-2.16 z m 0,0"
       inkscape:connector-curvature="0"
       style="fill:#af946c;stroke:none" /><path
       id="bezier3"
       d="m 103.5,195.34 5.73,-5.84 1.27,1.3 -6.36,6.48 -0.43,0.22 -0.21,-2.16 z m 0,0"
       inkscape:connector-curvature="0"
       style="fill:#af946c;stroke:none" /><path
       id="bezier4"
       d="m 104.5,191.34 -5.73,-5.84 -1.27,1.3 6.36,6.48 0.43,0.22 0.21,-2.16 z m 0,0"
       inkscape:connector-curvature="0"
       style="fill:#af946c;stroke:none" /></g><g
     id="yellowTree2"
     transform="matrix(1.654227,0,0,1.4435296,-126.34821,182.47501)"><ellipse
       id="oval3"
       cx="178.25"
       cy="187"
       rx="10.25"
       ry="4"
       style="fill:#378c4f;fill-opacity:1;stroke:none" /><path
       id="bezier9"
       d="m 163.5,175.3 13.38,-50.85 15.62,50.85 -29,0 z m 0,0"
       inkscape:connector-curvature="0"
       style="fill:#f4a06b;fill-opacity:1;stroke:none" /><rect
       id="rectangle3"
       x="177"
       y="157"
       width="2"
       height="30"
       style="fill:#af946c;stroke:none" /><path
       id="bezier10"
       d="m 177.5,162.44 5.73,-5.3 1.27,1.18 -6.36,5.89 -0.43,0.19 -0.21,-1.96 z m 0,0"
       inkscape:connector-curvature="0"
       style="fill:#af946c;stroke:none" /><path
       id="bezier11"
       d="m 177.5,169.7 5.73,-5.3 1.27,1.18 -6.36,5.89 -0.43,0.19 -0.21,-1.96 z m 0,0"
       inkscape:connector-curvature="0"
       style="fill:#af946c;stroke:none" /><path
       id="bezier12"
       d="m 178.5,166.07 -5.73,-5.3 -1.27,1.18 6.36,5.89 0.43,0.19 0.21,-1.96 z m 0,0"
       inkscape:connector-curvature="0"
       style="fill:#af946c;stroke:none" /></g><g
     id="yellowTree5"
     transform="matrix(1.1999776,0,0,1.0859674,0.0011101,154.32434)" /><g
     id="yellowTree6"
     transform="matrix(1.654227,0,0,1.4435296,47.730406,276.60123)"><ellipse
       id="oval7"
       cx="349"
       cy="90.5"
       rx="12"
       ry="5.5"
       style="fill:#378c4f;fill-opacity:1;stroke:none" /><path
       id="bezier25"
       d="m 333.5,76.5 14.77,-69 17.23,69 -32,0 z m 0,0"
       inkscape:connector-curvature="0"
       style="fill:#8fd173;fill-opacity:1;stroke:none" /><rect
       id="rectangle7"
       x="348"
       y="53"
       width="2"
       height="37"
       style="fill:#af946c;stroke:none" /><path
       id="bezier26"
       d="m 348.5,62.34 5.73,-5.84 1.27,1.3 -6.36,6.48 -0.43,0.22 -0.21,-2.16 z m 0,0"
       inkscape:connector-curvature="0"
       style="fill:#af946c;stroke:none" /><path
       id="bezier27"
       d="m 348.5,70.34 5.73,-5.84 1.27,1.3 -6.36,6.48 -0.43,0.22 -0.21,-2.16 z m 0,0"
       inkscape:connector-curvature="0"
       style="fill:#af946c;stroke:none" /><path
       id="bezier28"
       d="m 349.5,66.34 -5.73,-5.84 -1.27,1.3 6.36,6.48 0.43,0.22 0.21,-2.16 z m 0,0"
       inkscape:connector-curvature="0"
       style="fill:#af946c;stroke:none" /></g><g
     id="yellowTree7"
     transform="matrix(1.654227,0,0,1.4435296,-421.51654,232.49779)"><ellipse
       id="oval8"
       cx="492.25"
       cy="104"
       rx="10.25"
       ry="4"
       style="fill:#378c4f;fill-opacity:1;stroke:none" /><path
       id="bezier29"
       d="m 477.5,92.3 13.38,-50.85 15.62,50.85 -29,0 z m 0,0"
       inkscape:connector-curvature="0"
       style="fill:#217d5e;fill-opacity:1;stroke:none" /><rect
       id="rectangle8"
       x="491"
       y="74"
       width="2"
       height="30"
       style="fill:#af946c;stroke:none" /><path
       id="bezier30"
       d="m 491.5,79.44 5.73,-5.3 1.27,1.18 -6.36,5.89 -0.43,0.19 -0.21,-1.96 z m 0,0"
       inkscape:connector-curvature="0"
       style="fill:#af946c;stroke:none" /><path
       id="bezier31"
       d="m 491.5,86.7 5.73,-5.3 1.27,1.18 -6.36,5.89 -0.43,0.19 -0.21,-1.96 z m 0,0"
       inkscape:connector-curvature="0"
       style="fill:#af946c;stroke:none" /><path
       id="bezier32"
       d="m 492.5,83.07 -5.73,-5.3 -1.27,1.18 6.36,5.89 0.43,0.19 0.21,-1.96 z m 0,0"
       inkscape:connector-curvature="0"
       style="fill:#af946c;stroke:none" /></g><g
     id="group3"
     transform="translate(704.59297,214.36611)"><path
       d="M 0.17,44.58 C -0.06,34.67 6.41,30.71 17.23,31.18 21.18,18.58 33.15,16.98 47.33,19.21 53.03,4 81.36,-5.57 100.01,4.85 c 6.53,3.65 9.89,9.05 15.05,13.88 18.19,-7.03 38.13,7.15 34.11,25.85 -49.66,0 -99.34,0 -149,0 z m 0,0"
       id="bezier-1"
       inkscape:connector-curvature="0"
       style="fill:#f6f9f8;stroke:none" /><path
       d="m 80.52,29.98 c 4.02,0 7.27,-3.11 7.27,-6.94 l -14.55,0 c 0,3.83 3.26,6.94 7.28,6.94 z m 0,0"
       id="bezier2-0"
       inkscape:connector-curvature="0"
       style="fill:#d8e5e1;stroke:none" /><g
       id="group"><g
         id="group2"><g
           clip-path="url(#bezier3-8)"
           id="sVGID_2_"><clipPath
             id="bezier3-8"><path
               id="path4187"
               d="m 49.34,16.35 22.61,0 0,8.38 -22.61,0 0,-8.38 z m 0,0"
               inkscape:connector-curvature="0" /></clipPath><path
             d="m 65.92,20.62 c 2.65,2.59 2.65,6.79 0,9.38 -2.65,2.59 -6.95,2.59 -9.6,0 -2.64,-2.59 -2.64,-6.79 0,-9.38 2.65,-2.59 6.95,-2.59 9.6,0 z m 0,0"
             stroke-miterlimit="10"
             id="bezier4-0"
             inkscape:connector-curvature="0"
             style="fill:none;stroke:#d8e5e1;stroke-width:2;stroke-miterlimit:10" /></g></g><g
         id="group4"><g
           clip-path="url(#bezier5)"
           id="sVGID_4_"><clipPath
             id="bezier5"><path
               id="path4193"
               d="m 89.32,16.38 21.63,0 0,8.38 -21.63,0 0,-8.38 z m 0,0"
               inkscape:connector-curvature="0" /></clipPath><path
             d="m 105.18,20.65 c 2.53,2.59 2.53,6.8 0,9.39 -2.54,2.59 -6.64,2.59 -9.18,0 -2.53,-2.59 -2.53,-6.8 0,-9.39 2.54,-2.59 6.64,-2.59 9.18,0 z m 0,0"
             stroke-miterlimit="10"
             id="bezier6"
             inkscape:connector-curvature="0"
             style="fill:none;stroke:#d8e5e1;stroke-width:2;stroke-miterlimit:10" /></g></g></g></g><g
     transform="translate(14.915015,16.182779)"
     id="g4216"><path
       style="fill:#f6f9f8;stroke:none"
       inkscape:connector-curvature="0"
       id="path4218"
       d="M 0.17,44.58 C -0.06,34.67 6.41,30.71 17.23,31.18 21.18,18.58 33.15,16.98 47.33,19.21 53.03,4 81.36,-5.57 100.01,4.85 c 6.53,3.65 9.89,9.05 15.05,13.88 18.19,-7.03 38.13,7.15 34.11,25.85 -49.66,0 -99.34,0 -149,0 z m 0,0" /><path
       style="fill:#d8e5e1;stroke:none"
       inkscape:connector-curvature="0"
       id="path4220"
       d="m 80.52,29.98 c 4.02,0 7.27,-3.11 7.27,-6.94 l -14.55,0 c 0,3.83 3.26,6.94 7.28,6.94 z m 0,0" /><g
       id="g4222"><g
         id="g4224"><g
           id="g4226"
           clip-path="url(#bezier3-8)"><clipPath
             id="clipPath4228"><path
               inkscape:connector-curvature="0"
               d="m 49.34,16.35 22.61,0 0,8.38 -22.61,0 0,-8.38 z m 0,0"
               id="path4230" /></clipPath><path
             style="fill:none;stroke:#d8e5e1;stroke-width:2;stroke-miterlimit:10"
             inkscape:connector-curvature="0"
             id="path4232"
             stroke-miterlimit="10"
             d="m 65.92,20.62 c 2.65,2.59 2.65,6.79 0,9.38 -2.65,2.59 -6.95,2.59 -9.6,0 -2.64,-2.59 -2.64,-6.79 0,-9.38 2.65,-2.59 6.95,-2.59 9.6,0 z m 0,0" /></g></g><g
         id="g4234"><g
           id="g4236"
           clip-path="url(#bezier5)"><clipPath
             id="clipPath4238"><path
               inkscape:connector-curvature="0"
               d="m 89.32,16.38 21.63,0 0,8.38 -21.63,0 0,-8.38 z m 0,0"
               id="path4240" /></clipPath><path
             style="fill:none;stroke:#d8e5e1;stroke-width:2;stroke-miterlimit:10"
             inkscape:connector-curvature="0"
             id="path4242"
             stroke-miterlimit="10"
             d="m 105.18,20.65 c 2.53,2.59 2.53,6.8 0,9.39 -2.54,2.59 -6.64,2.59 -9.18,0 -2.53,-2.59 -2.53,-6.8 0,-9.39 2.54,-2.59 6.64,-2.59 9.18,0 z m 0,0" /></g></g></g></g></svg>