<?xml version="1.0" encoding="UTF-8" standalone="no"?>
<svg
   xmlns:dc="http://purl.org/dc/elements/1.1/"
   xmlns:cc="http://creativecommons.org/ns#"
   xmlns:rdf="http://www.w3.org/1999/02/22-rdf-syntax-ns#"
   xmlns:svg="http://www.w3.org/2000/svg"
   xmlns="http://www.w3.org/2000/svg"
   xmlns:sodipodi="http://sodipodi.sourceforge.net/DTD/sodipodi-0.dtd"
   xmlns:inkscape="http://www.inkscape.org/namespaces/inkscape"
   version="1.1"
   x="0px"
   y="0px"
   preserveAspectRatio="xMidYMid meet"
   width="284px"
   height="284px"
   viewBox="0 0 284 284"
   enable-background="new 0 0 284 284"
   xml:space="preserve"
   id="svg2"
   inkscape:version="0.91 r13725"
   sodipodi:docname="me.svg"><metadata
     id="metadata69"><rdf:RDF><cc:Work
         rdf:about=""><dc:format>image/svg+xml</dc:format><dc:type
           rdf:resource="http://purl.org/dc/dcmitype/StillImage" /></cc:Work></rdf:RDF></metadata><defs
     id="defs67" /><sodipodi:namedview
     pagecolor="#ffffff"
     bordercolor="#666666"
     borderopacity="1"
     objecttolerance="10"
     gridtolerance="10"
     guidetolerance="10"
     inkscape:pageopacity="0"
     inkscape:pageshadow="2"
     inkscape:window-width="1366"
     inkscape:window-height="705"
     id="namedview65"
     showgrid="false"
     inkscape:zoom="0.41549296"
     inkscape:cx="-363.69667"
     inkscape:cy="401.03283"
     inkscape:window-x="-8"
     inkscape:window-y="-8"
     inkscape:window-maximized="1"
     inkscape:current-layer="g4660"
     showguides="true"
     inkscape:guide-bbox="true" /><g
     id="g4526"><g
       id="g4592"><g
         id="g4660"
         transform="translate(-2,-4)"><circle
           r="136.33064"
           cy="146.10594"
           cx="143.50424"
           id="path4524"
           style="opacity:1;fill:#fafafa;fill-opacity:1;stroke:none;stroke-opacity:0.8627451" /><g
           transform="matrix(0.97662796,0,0,0.97662796,5.220339,7.4247616)"
           id="g4460"><circle
             style="fill:#f3f2f1;stroke:none"
             id="oval2"
             cx="141"
             cy="141"
             r="0" /><g
             id="group"
             clip-path="url(#oval)"><clipPath
               id="oval"><circle
                 cx="141"
                 cy="141"
                 r="141"
                 id="circle7" /></clipPath><g
               id="page1"><g
                 id="layer_1"><g
                   id="layer_1_1_"><path
                     style="fill:#f3c5ad;stroke:none"
                     inkscape:connector-curvature="0"
                     id="bezier2"
                     d="m 106.18,234.3 c 11.06,4.14 13.23,25.63 4.84,48.01 -8.38,22.38 -24.15,37.17 -35.2,33.03 -11.06,-4.14 -13.23,-25.64 -4.84,-48.01 8.38,-22.38 24.15,-37.17 35.2,-33.03 z m 0,0" /><path
                     style="fill:#000000;stroke:none"
                     inkscape:connector-curvature="0"
                     id="bezier"
                     d="m 85.45,313.56 0,17.1 113.31,0 0,-17.1 -113.31,0 z m 0,0" /><path
                     style="fill:#1a1718;fill-opacity:0.3;stroke:none"
                     inkscape:connector-curvature="0"
                     id="bezier3"
                     d="m 69.5,287.42 c -1.68,-1.11 -1.74,-5.52 -0.23,-10.18 -0.17,0.38 -0.33,0.77 -0.48,1.17 -1.94,5.08 -2.03,10.18 -0.2,11.39 1.84,1.21 4.88,-1.93 6.82,-7.01 0.15,-0.41 0.29,-0.81 0.42,-1.21 -1.93,4.38 -4.65,6.95 -6.33,5.84 l 0,0 z m 0,0" /><path
                     style="fill:#f3c5ad;stroke:none"
                     inkscape:connector-curvature="0"
                     id="bezier4"
                     d="m 171.82,222.3 c -11.06,4.14 -13.23,25.63 -4.84,48.01 8.38,22.38 24.15,37.17 35.2,33.03 11.06,-4.14 13.23,-25.64 4.84,-48.01 -8.38,-22.38 -24.15,-37.17 -35.2,-33.03 z m 0,0" /><path
                     style="fill:#1a1718;fill-opacity:0.3;stroke:none"
                     inkscape:connector-curvature="0"
                     id="bezier5"
                     d="m 195.56,296.25 c -3.27,0 -5.95,-5.02 -6.36,-11.53 -0.04,0.56 -0.06,1.13 -0.06,1.71 0,7.32 2.87,13.25 6.41,13.25 3.54,0 6.42,-5.93 6.42,-13.25 0,-0.58 -0.03,-1.15 -0.07,-1.71 -0.4,6.5 -3.09,11.53 -6.34,11.53 l 0,0 z m 0,0" /><path
                     inkscape:connector-curvature="0"
                     id="bezier6"
                     d="m 209.45,248.39 -19.56,-27.77 -15.76,7.24 -1.4,-4.57 -62.91,0 -1.08,3.96 -14.42,-6.63 -19.56,27.77 24.99,11.48 -15.37,55.83 116.63,0 -17.02,-55.61 25.46,-11.7 z m 0,0"
                     style="fill:#4791bd;fill-opacity:1;stroke:none" /><path
                     style="fill:#ffffff;stroke:none"
                     inkscape:connector-curvature="0"
                     id="bezier7"
                     d="m 142.1,252.67 c 10.04,0 18.18,-8.13 18.18,-18.16 0,-10.03 -8.14,-18.16 -18.18,-18.16 -10.03,0 -18.17,8.13 -18.17,18.16 0,10.03 8.14,18.16 18.17,18.16 z m 0,0" /><path
                     style="fill:#d5a691;stroke:none"
                     inkscape:connector-curvature="0"
                     id="bezier8"
                     d="m 142.07,249.4 c 8.25,0 14.93,-6.24 14.93,-13.93 0,-7.69 -6.68,-13.92 -14.93,-13.92 -8.25,0 -14.93,6.23 -14.93,13.92 0,7.69 6.68,13.93 14.93,13.93 z m 0,0" /><path
                     style="fill:#f3c5ad;stroke:none"
                     inkscape:connector-curvature="0"
                     id="bezier9"
                     d="m 46.43,168.27 c 7.97,0 14.43,-6.46 14.43,-14.42 0,-7.97 -6.46,-14.43 -14.43,-14.43 -7.97,0 -14.43,6.46 -14.43,14.43 0,7.96 6.46,14.42 14.43,14.42 z m 0,0" /><path
                     style="fill:#f3c5ad;stroke:none"
                     inkscape:connector-curvature="0"
                     id="bezier10"
                     d="m 234.57,168.27 c 7.97,0 14.43,-6.46 14.43,-14.42 0,-7.97 -6.46,-14.43 -14.43,-14.43 -7.97,0 -14.43,6.46 -14.43,14.43 0,7.96 6.46,14.42 14.43,14.42 z m 0,0" /><path
                     id="bezier11"
                     d="m 141.57,235.58 c 32.26922,-0.002 95.67,-33.49 95.67,-74.79 0,-41.3 -42.83,-74.78 -95.67,-74.78 -52.84,0 -95.67,33.48 -95.67,74.78 0,41.3 66.22226,74.7918 95.67,74.79 z"
                     inkscape:connector-curvature="0"
                     style="fill:#ebc0a5;fill-opacity:1;stroke:none"
                     sodipodi:nodetypes="sssss" /><path
                     inkscape:connector-curvature="0"
                     style="fill:#0a0a0a;fill-opacity:0.03137255;stroke:none"
                     d="m 207.5,182.16016 c -16.05,0 -29.05078,13.0807 -29.05078,29.2207 0,4.8753 1.20508,9.45957 3.30469,13.5 17.44287,-8.15685 34.69096,-20.47227 45.21484,-35.17969 -5.15174,-4.68273 -11.97444,-7.54101 -19.46875,-7.54101 z"
                     id="bezier29" /><path
                     inkscape:connector-curvature="0"
                     style="fill:#0a0a0a;fill-opacity:0.03137255;stroke:none"
                     d="m 75.640625,182.16016 c -7.37952,0 -14.111239,2.76865 -19.234375,7.32422 10.664472,14.52351 28.013597,26.72453 45.23633,34.92187 1.94718,-3.92219 3.04687,-8.3429 3.04687,-13.02539 0,-16.14 -13.008825,-29.2207 -29.048825,-29.2207 z"
                     id="bezier28" /><path
                     inkscape:connector-curvature="0"
                     id="bezier12"
                     d="m 107.44931,163.77 c 0,9.33 -7.41999,-11.99 -16.569992,-11.99 -9.150003,0 -16.570003,21.32 -16.570003,11.99 0,-9.31 7.42,-16.87 16.570003,-16.87 9.150002,0 16.569992,7.56 16.569992,16.87 l 0,0 z m 0,0"
                     style="opacity:0.65;fill:#2d2017;fill-opacity:0.8627451;stroke:none" /><path
                     inkscape:connector-curvature="0"
                     id="bezier13"
                     d="m 214.1707,163.77 c 0,9.33 -7.42,-11.99 -16.57,-11.99 -9.15,0 -16.56,21.32 -16.56,11.99 0,-9.31 7.41,-16.87 16.56,-16.87 9.15,0 16.57,7.56 16.57,16.87 l 0,0 z m 0,0"
                     style="opacity:0.65;fill:#2d2017;fill-opacity:0.8627451;stroke:none" /><path
                     inkscape:connector-curvature="0"
                     id="bezier14"
                     d="m 196.0007,134.82 c 11.85,0 21.55,8.15 22.38,18.49 0.04,-0.47 0.07,-0.95 0.07,-1.43 0,-11.01 -10.05,-19.93 -22.45,-19.93 -12.39,0 -22.45,8.92 -22.45,19.93 0,0.48 0.03,0.96 0.07,1.43 0.83,-10.33 10.53,-18.49 22.38,-18.49 l 0,0 z m 0,0"
                     style="opacity:0.65;fill:#2d2017;fill-opacity:0.62745098;stroke:none" /><path
                     inkscape:connector-curvature="0"
                     id="bezier15"
                     d="m 90.339318,134.82 c 11.859992,0 21.559982,8.15 22.389982,18.49 0.03,-0.47 0.06,-0.95 0.06,-1.43 0,-11.01 -10.04999,-19.93 -22.449982,-19.93 -12.390003,0 -22.440003,8.92 -22.440003,19.93 0,0.48 0.02,0.96 0.06,1.43 0.83,-10.33 10.53,-18.49 22.380003,-18.49 l 0,0 z m 0,0"
                     style="opacity:0.65;fill:#2d2017;fill-opacity:0.62745098;stroke:none" /><path
                     id="bezier16"
                     d="m 46.04,105.24 c -0.09,-1.03 -0.14,-2.07 -0.14,-3.11 0,-13.34 7.55,-25.62 20.21,-35.38 3.763678,-2.775485 3.763573,-5.575849 -1.327938,-13.829452 8.695624,3.564999 8.976321,9.194515 10.496321,8.314515 1.76407,-0.929141 -1.373048,-7.961214 2.11685,-13.662599 C 77.666366,60.955485 91.77,52.94 94.64,51.96 c 13.88,-4.7 29.89,-7.39 46.95,-7.39 51.86,0 94.07,24.81 95.65,55.77 l -191.2,0 z"
                     style="fill:#2d2017;fill-opacity:1;stroke:none"
                     inkscape:connector-curvature="0"
                     sodipodi:nodetypes="cscccccsccc" /><path
                     id="bezier17"
                     d="m 237.24,98.83 -191.22,0 c 0,0 -2.197493,7.71636 -6.136949,-6.016949 -2.169762,9.348979 -0.471574,17.760879 0.214481,26.601889 C 41.120365,132.59591 45.9,158.65 45.9,158.65 c 2.527715,-15.13493 9.454995,-37.86409 26.203677,-36.954 12.89142,0.7005 19.185649,10.37809 9.419664,-5.6079 -4.877035,-7.98325 6.969057,-3.41357 10.667831,-4.8955 4.034047,-1.61625 15.058188,-8.00708 12.528618,-4.30633 -12.06269,17.64764 9.09073,-2.41241 13.77133,-3.31557 2.41473,-0.46594 16.44639,13.765 15.7201,11.40087 -3.10173,-10.09627 -1.9693,-13.47931 1.27603,-13.75791 3.69341,-0.31706 19.53807,5.75276 21.29591,8.99664 3.7674,6.95228 -2.69039,-9.57685 1.02483,-9.37902 4.21621,0.2245 9.16924,-1.756791 10.76448,2.04503 5.49107,13.08645 3.5677,-1.203 5.80811,-0.76843 0.59711,0.11583 10.0322,23.05212 4.49181,1.41248 -0.71028,-2.77421 4.28234,3.92358 6.95373,6.3507 4.93086,4.47998 10.33899,8.93059 10.33899,8.93059 0,0 -2.72594,-11.77997 2.53108,-10.25987 8.06257,2.33134 16.50618,2.59907 14.1582,11.06229 -5.25913,18.95645 -0.53877,4.28544 7.82602,6.6798 11.71989,3.35474 14.58998,19.35865 16.55959,32.36608 0,0 6.99544,-23.697 8.62894,-35.89347 1.45538,-10.86653 2.8112,-22.34832 0.99818,-32.875513 C 244.00907,99.210086 237.24,98.83 237.24,98.83 Z"
                     inkscape:connector-curvature="0"
                     style="fill:#2d2017;fill-opacity:1;stroke:none"
                     sodipodi:nodetypes="cccacssssssssssssscssscscc" /><path
                     style="fill:#2c2723;stroke:none"
                     inkscape:connector-curvature="0"
                     id="bezier18"
                     d="m 141.03,317.84 0,13.89 1.07,0 0,-13.89 -1.07,0 z m 0,0" /><path
                     inkscape:connector-curvature="0"
                     id="bezier19"
                     d="m 142.1,171.47 c 2.59,0 4.75,1.84 5.24,4.28 0.07,-0.35 0.11,-0.7 0.11,-1.07 0,-2.95 -2.39,-5.34 -5.35,-5.34 -2.95,0 -5.34,2.39 -5.34,5.34 0,0.37 0.04,0.72 0.11,1.07 0.49,-2.44 2.65,-4.28 5.23,-4.28 l 0,0 z m 0,0"
                     style="opacity:0.65;fill:#2d2017;fill-opacity:0.62745098;stroke:none" /><g
                     id="g4731"><path
                       d="m 203.57,196.05 c 2.07,0 3.74,-1.68 3.74,-3.74 0,-2.07 -1.67,-3.74 -3.74,-3.74 -2.07,0 -3.74,1.67 -3.74,3.74 0,2.06 1.67,3.74 3.74,3.74 z m 0,0"
                       id="bezier20"
                       inkscape:connector-curvature="0"
                       style="fill:#f6742c;fill-opacity:0.45490196;stroke:none" /><path
                       d="m 209.98,200.32 c 0.89,0 1.61,-0.72 1.61,-1.6 0,-0.89 -0.72,-1.6 -1.61,-1.6 -0.88,0 -1.6,0.71 -1.6,1.6 0,0.88 0.72,1.6 1.6,1.6 z m 0,0"
                       id="bezier21"
                       inkscape:connector-curvature="0"
                       style="fill:#f6742c;fill-opacity:0.45490196;stroke:none" /><path
                       d="m 195.55,200.32 c 1.18,0 2.14,-0.96 2.14,-2.14 0,-1.18 -0.96,-2.13 -2.14,-2.13 -1.18,0 -2.14,0.95 -2.14,2.13 0,1.18 0.96,2.14 2.14,2.14 z m 0,0"
                       id="bezier22"
                       inkscape:connector-curvature="0"
                       style="fill:#f6742c;fill-opacity:0.45490196;stroke:none" /><path
                       d="m 200.36,199.25 c 0.3,0 0.54,-0.24 0.54,-0.53 0,-0.3 -0.24,-0.54 -0.54,-0.54 -0.29,0 -0.53,0.24 -0.53,0.54 0,0.29 0.24,0.53 0.53,0.53 z m 0,0"
                       id="bezier23"
                       inkscape:connector-curvature="0"
                       style="fill:#f6742c;fill-opacity:0.45490196;stroke:none" /></g><g
                     id="g4737"><path
                       d="m 85.98,196.05 c 2.07,0 3.74,-1.68 3.74,-3.74 0,-2.07 -1.67,-3.74 -3.74,-3.74 -2.06,0 -3.74,1.67 -3.74,3.74 0,2.06 1.68,3.74 3.74,3.74 z m 0,0"
                       id="bezier24"
                       inkscape:connector-curvature="0"
                       style="fill:#f6742c;fill-opacity:0.45490196;stroke:none" /><path
                       d="m 92.4,200.32 c 0.88,0 1.6,-0.72 1.6,-1.6 0,-0.89 -0.72,-1.6 -1.6,-1.6 -0.89,0 -1.61,0.71 -1.61,1.6 0,0.88 0.72,1.6 1.61,1.6 z m 0,0"
                       id="bezier25"
                       inkscape:connector-curvature="0"
                       style="fill:#f6742c;fill-opacity:0.45490196;stroke:none" /><path
                       d="m 76.9,200.32 c 1.18,0 2.13,-0.96 2.13,-2.14 0,-1.18 -0.95,-2.13 -2.13,-2.13 -1.18,0 -2.14,0.95 -2.14,2.13 0,1.18 0.96,2.14 2.14,2.14 z m 0,0"
                       id="bezier26"
                       inkscape:connector-curvature="0"
                       style="fill:#f6742c;fill-opacity:0.45490196;stroke:none" /><path
                       d="m 81.71,199.25 c 0.29,0 0.53,-0.24 0.53,-0.53 0,-0.3 -0.24,-0.54 -0.53,-0.54 -0.3,0 -0.54,0.24 -0.54,0.54 0,0.29 0.24,0.53 0.54,0.53 z m 0,0"
                       id="bezier27"
                       inkscape:connector-curvature="0"
                       style="fill:#f6742c;fill-opacity:0.45490196;stroke:none" /></g><path
                     style="fill:#2c2723;stroke:none"
                     inkscape:connector-curvature="0"
                     id="bezier30"
                     d="m 74.22,336 c 2.66,0 4.81,-1.67 4.81,-3.74 0,-2.06 -2.15,-3.74 -4.81,-3.74 -2.65,0 -4.81,1.68 -4.81,3.74 0,2.07 2.16,3.74 4.81,3.74 z m 0,0" /><path
                     style="fill:#2c2723;stroke:none"
                     inkscape:connector-curvature="0"
                     id="bezier31"
                     d="m 81.71,336 c 2.65,0 4.81,-1.67 4.81,-3.74 0,-2.06 -2.16,-3.74 -4.81,-3.74 -2.66,0 -4.81,1.68 -4.81,3.74 0,2.07 2.15,3.74 4.81,3.74 z m 0,0" /><path
                     style="fill:#2c2723;stroke:none"
                     inkscape:connector-curvature="0"
                     id="bezier32"
                     d="m 89.19,336 c 2.66,0 4.81,-1.67 4.81,-3.74 0,-2.06 -2.15,-3.74 -4.81,-3.74 -2.66,0 -4.81,1.68 -4.81,3.74 0,2.07 2.15,3.74 4.81,3.74 z m 0,0" /><path
                     style="fill:#2c2723;stroke:none"
                     inkscape:connector-curvature="0"
                     id="bezier33"
                     d="m 97.74,336 c 2.66,0 4.81,-1.67 4.81,-3.74 0,-2.06 -2.15,-3.74 -4.81,-3.74 -2.66,0 -4.81,1.68 -4.81,3.74 0,2.07 2.15,3.74 4.81,3.74 z m 0,0" /><path
                     style="fill:#2c2723;stroke:none"
                     inkscape:connector-curvature="0"
                     id="bezier34"
                     d="m 105.22,336 c 2.66,0 4.81,-1.67 4.81,-3.74 0,-2.06 -2.15,-3.74 -4.81,-3.74 -2.65,0 -4.81,1.68 -4.81,3.74 0,2.07 2.16,3.74 4.81,3.74 z m 0,0" /><path
                     style="fill:#2c2723;stroke:none"
                     inkscape:connector-curvature="0"
                     id="bezier35"
                     d="m 112.71,336 c 2.65,0 4.81,-1.67 4.81,-3.74 0,-2.06 -2.16,-3.74 -4.81,-3.74 -2.66,0 -4.81,1.68 -4.81,3.74 0,2.07 2.15,3.74 4.81,3.74 z m 0,0" /><path
                     style="fill:#2c2723;stroke:none"
                     inkscape:connector-curvature="0"
                     id="bezier36"
                     d="m 121.26,336 c 2.66,0 4.81,-1.67 4.81,-3.74 0,-2.06 -2.15,-3.74 -4.81,-3.74 -2.66,0 -4.81,1.68 -4.81,3.74 0,2.07 2.15,3.74 4.81,3.74 z m 0,0" /><path
                     style="fill:#2c2723;stroke:none"
                     inkscape:connector-curvature="0"
                     id="bezier37"
                     d="m 128.74,336 c 2.66,0 4.81,-1.67 4.81,-3.74 0,-2.06 -2.15,-3.74 -4.81,-3.74 -2.66,0 -4.81,1.68 -4.81,3.74 0,2.07 2.15,3.74 4.81,3.74 z m 0,0" /><path
                     style="fill:#2c2723;stroke:none"
                     inkscape:connector-curvature="0"
                     id="bezier38"
                     d="m 136.22,336 c 2.66,0 4.81,-1.67 4.81,-3.74 0,-2.06 -2.15,-3.74 -4.81,-3.74 -2.65,0 -4.81,1.68 -4.81,3.74 0,2.07 2.16,3.74 4.81,3.74 z m 0,0" /><path
                     style="fill:#2c2723;stroke:none"
                     inkscape:connector-curvature="0"
                     id="bezier39"
                     d="m 146.91,336 c 2.66,0 4.81,-1.67 4.81,-3.74 0,-2.06 -2.15,-3.74 -4.81,-3.74 -2.65,0 -4.81,1.68 -4.81,3.74 0,2.07 2.16,3.74 4.81,3.74 z m 0,0" /><path
                     style="fill:#2c2723;stroke:none"
                     inkscape:connector-curvature="0"
                     id="bezier40"
                     d="m 154.4,336 c 2.65,0 4.81,-1.67 4.81,-3.74 0,-2.06 -2.16,-3.74 -4.81,-3.74 -2.66,0 -4.81,1.68 -4.81,3.74 0,2.07 2.15,3.74 4.81,3.74 z m 0,0" /><path
                     style="fill:#2c2723;stroke:none"
                     inkscape:connector-curvature="0"
                     id="bezier41"
                     d="m 161.88,336 c 2.66,0 4.81,-1.67 4.81,-3.74 0,-2.06 -2.15,-3.74 -4.81,-3.74 -2.66,0 -4.81,1.68 -4.81,3.74 0,2.07 2.15,3.74 4.81,3.74 z m 0,0" /><path
                     style="fill:#2c2723;stroke:none"
                     inkscape:connector-curvature="0"
                     id="bezier42"
                     d="m 170.43,336 c 2.66,0 4.81,-1.67 4.81,-3.74 0,-2.06 -2.15,-3.74 -4.81,-3.74 -2.66,0 -4.81,1.68 -4.81,3.74 0,2.07 2.15,3.74 4.81,3.74 z m 0,0" /><path
                     style="fill:#2c2723;stroke:none"
                     inkscape:connector-curvature="0"
                     id="bezier43"
                     d="m 177.91,336 c 2.66,0 4.81,-1.67 4.81,-3.74 0,-2.06 -2.15,-3.74 -4.81,-3.74 -2.65,0 -4.81,1.68 -4.81,3.74 0,2.07 2.16,3.74 4.81,3.74 z m 0,0" /><path
                     style="fill:#2c2723;stroke:none"
                     inkscape:connector-curvature="0"
                     id="bezier44"
                     d="m 185.4,336 c 2.65,0 4.81,-1.67 4.81,-3.74 0,-2.06 -2.16,-3.74 -4.81,-3.74 -2.66,0 -4.81,1.68 -4.81,3.74 0,2.07 2.15,3.74 4.81,3.74 z m 0,0" /><path
                     style="fill:#2c2723;stroke:none"
                     inkscape:connector-curvature="0"
                     id="bezier45"
                     d="m 193.95,336 c 2.65,0 4.81,-1.67 4.81,-3.74 0,-2.06 -2.16,-3.74 -4.81,-3.74 -2.66,0 -4.81,1.68 -4.81,3.74 0,2.07 2.15,3.74 4.81,3.74 z m 0,0" /><path
                     style="fill:#2c2723;stroke:none"
                     inkscape:connector-curvature="0"
                     id="bezier46"
                     d="m 201.43,336 c 2.66,0 4.81,-1.67 4.81,-3.74 0,-2.06 -2.15,-3.74 -4.81,-3.74 -2.66,0 -4.81,1.68 -4.81,3.74 0,2.07 2.15,3.74 4.81,3.74 z m 0,0" /><path
                     style="fill:#2c2723;stroke:none"
                     inkscape:connector-curvature="0"
                     id="bezier47"
                     d="m 208.91,336 c 2.66,0 4.81,-1.67 4.81,-3.74 0,-2.06 -2.15,-3.74 -4.81,-3.74 -2.65,0 -4.81,1.68 -4.81,3.74 0,2.07 2.16,3.74 4.81,3.74 z m 0,0" /><path
                     inkscape:connector-curvature="0"
                     id="bezier48"
                     d="m 142.1,180.02 c 24.21,0 43.83,-2.15 43.83,-4.81 0,-2.65 -19.62,-4.8 -43.83,-4.8 -24.2,0 -43.82,2.15 -43.82,4.8 0,2.66 19.62,4.81 43.82,4.81 z m 0,0"
                     style="fill:#191919;fill-opacity:0.03137255;stroke:none" /><path
                     style="fill:#ffffff;stroke:none"
                     inkscape:connector-curvature="0"
                     id="bezier49"
                     d="m 105.76,317.84 c -20.08,0 -36.35,6.69 -36.35,14.95 l 72.69,0 c 0,-8.26 -16.27,-14.95 -36.34,-14.95 l 0,0 z m 0,0" /><path
                     style="fill:#ffffff;stroke:none"
                     inkscape:connector-curvature="0"
                     id="bezier50"
                     d="m 178.45,317.84 c -20.07,0 -36.35,6.69 -36.35,14.95 l 72.69,0 c 0,-8.26 -16.27,-14.95 -36.34,-14.95 l 0,0 z m 0,0" /><path
                     style="fill:#f1b89c;stroke:none"
                     inkscape:connector-curvature="0"
                     id="bezier51"
                     d="m 69.88,268.97 c -2.06,-2.88 -4.89,-4.38 -6.33,-3.35 -1.45,1.03 -0.94,4.2 1.12,7.07 2.06,2.88 4.9,4.38 6.34,3.36 1.44,-1.03 0.93,-4.2 -1.13,-7.08 z m 0,0" /><path
                     sodipodi:nodetypes="cccscccsssssccscscccccssssssssssssscssscc"
                     style="fill:#000000;fill-opacity:0.31012657;stroke:none"
                     inkscape:connector-curvature="0"
                     d="m 194.43639,97.071733 c -8.9451,-3.656499 -1.98223,-7.652068 -14.15009,-31.987793 2.18354,18.912911 -2.44295,15.661308 -2.44295,15.661308 0,0 -3.01028,-5.391025 -6.05227,-10.338074 -4.33294,-7.046455 -8.73023,-13.19215 -4.5843,-1.574878 2.87944,11.887143 -6.39705,9.183944 -6.39705,9.183944 0,0 -5.33967,-6.317797 -1.35565,-20.375013 1.50389,-5.268274 -3.06456,1.469466 -5.96261,8.174372 -2.77548,6.421318 -2.314,11.719307 -3.51592,11.73868 -0.9966,0.01606 -0.97765,-3.444721 -1.81124,-7.076879 -1.29061,-5.623511 -5.56481,-11.636112 -5.97447,-10.061805 -0.14715,0.565515 1.37671,3.715464 1.79052,6.691257 1.00864,7.253265 -7.40688,11.298352 -7.40688,11.298352 0,0 -13.00058,-3.367202 -6.8074,-15.103921 1.87565,-2.730897 -3.83318,0.568602 -6.99386,5.297576 -3.11089,4.654464 -4.49363,10.870001 -4.49363,10.870001 0,0 -8.50203,-0.486639 -2.97824,-17.443965 0.96525,-2.963209 -3.97627,3.774751 -6.68603,9.143047 -1.4912,3.12567 -3.24362,9.93524 -3.24362,9.93524 0,0 -5.21487,-3.822033 -3.72374,-9.590629 -4.901002,3.485156 1.38918,19.955046 -12.333625,25.537487 C 61.61248,105.91835 46.871205,118.94731 45.9,158.65 c 2.527715,-15.13493 9.454995,-37.86409 26.203677,-36.954 12.89142,0.7005 19.185649,10.37809 9.419664,-5.6079 -4.877035,-7.98325 6.969057,-3.41357 10.667831,-4.8955 4.034047,-1.61625 15.058188,-8.00708 12.528618,-4.30633 -12.06269,17.64764 9.09073,-2.41241 13.77133,-3.31557 2.41473,-0.46594 16.44639,13.765 15.7201,11.40087 -3.10173,-10.09627 -1.9693,-13.47931 1.27603,-13.75791 3.69341,-0.31706 19.53807,5.75276 21.29591,8.99664 3.7674,6.95228 -2.69039,-9.57685 1.02483,-9.37902 4.21621,0.2245 9.16924,-1.756791 10.76448,2.04503 5.49107,13.08645 3.5677,-1.203 5.80811,-0.76843 0.59711,0.11583 10.0322,23.05212 4.49181,1.41248 -0.71028,-2.77421 4.28234,3.92358 6.95373,6.3507 4.93086,4.47998 10.33899,8.93059 10.33899,8.93059 0,0 -2.72594,-11.77997 2.53108,-10.25987 8.06257,2.33134 16.50618,2.59907 14.1582,11.06229 -5.25913,18.95645 -0.53877,4.28544 7.82602,6.6798 11.71989,3.35474 14.58998,19.35865 16.55959,32.36608 -1.34268,-23.48435 -6.31317,-51.98791 -42.80361,-61.578217 z"
                     id="path4248" /></g><g
                   id="g4727"><path
                     sodipodi:nodetypes="czssc"
                     style="opacity:0.65;fill:none;stroke:#2d2017;stroke-width:2.6374011;stroke-miterlimit:4;stroke-opacity:0.8627451"
                     inkscape:connector-curvature="0"
                     d="m 166.04844,203.63318 c 0,6.83498 -12.84439,13.68995 -23.10841,13.63864 -10.26402,-0.0513 -22.64847,-6.81377 -22.64847,-13.63864 0,-6.88553 10.22765,-12.44653 22.87844,-12.44653 12.65079,0 22.87844,5.561 22.87844,12.44653 z"
                     stroke-miterlimit="4"
                     id="bezier52" /><path
                     inkscape:connector-curvature="0"
                     style="fill:#ebc0a5;fill-opacity:1;stroke:none"
                     d="m 110.03,188.15795 0,21.2778 65.21,0 0,-21.2778 -65.21,0 z m 0,0"
                     id="bezier53" /></g></g></g><g
               id="g4226"
               transform="matrix(-1,0,0,1,158.45763,0)" /></g></g><circle
           style="opacity:1;fill:none;fill-opacity:1;stroke:#ffffff;stroke-width:3;stroke-linecap:square;stroke-linejoin:round;stroke-miterlimit:4;stroke-dasharray:none;stroke-opacity:1"
           id="circle4658"
           cx="143.50424"
           cy="146.10594"
           r="136.33064" /></g></g></g></svg>