<?xml version="1.0" encoding="UTF-8" standalone="no"?>
<!-- Created with Inkscape (http://www.inkscape.org/) -->

<svg
   xmlns:dc="http://purl.org/dc/elements/1.1/"
   xmlns:cc="http://creativecommons.org/ns#"
   xmlns:rdf="http://www.w3.org/1999/02/22-rdf-syntax-ns#"
   xmlns:svg="http://www.w3.org/2000/svg"
   xmlns="http://www.w3.org/2000/svg"
   xmlns:sodipodi="http://sodipodi.sourceforge.net/DTD/sodipodi-0.dtd"
   xmlns:inkscape="http://www.inkscape.org/namespaces/inkscape"
   width="210mm"
   height="297mm"
   viewBox="0 0 744.09448819 1052.3622047"
   id="svg5685"
   version="1.1"
   inkscape:version="0.91 r13725"
   sodipodi:docname="egalink.svg">
  <defs
     id="defs5687" />
  <sodipodi:namedview
     id="base"
     pagecolor="#ffffff"
     bordercolor="#666666"
     borderopacity="1.0"
     inkscape:pageopacity="0.0"
     inkscape:pageshadow="2"
     inkscape:zoom="0.24748737"
     inkscape:cx="509.28515"
     inkscape:cy="510.4298"
     inkscape:document-units="px"
     inkscape:current-layer="g6443"
     showgrid="false"
     inkscape:window-width="1366"
     inkscape:window-height="705"
     inkscape:window-x="-8"
     inkscape:window-y="-8"
     inkscape:window-maximized="1"
     showguides="true"
     inkscape:guide-bbox="true">
    <sodipodi:guide
       position="278.8021,288.90363"
       orientation="0,1"
       id="guide6474" />
    <sodipodi:guide
       position="333.35034,155.5635"
       orientation="0,1"
       id="guide6476" />
  </sodipodi:namedview>
  <metadata
     id="metadata5690">
    <rdf:RDF>
      <cc:Work
         rdf:about="">
        <dc:format>image/svg+xml</dc:format>
        <dc:type
           rdf:resource="http://purl.org/dc/dcmitype/StillImage" />
        <dc:title></dc:title>
      </cc:Work>
    </rdf:RDF>
  </metadata>
  <g
     inkscape:label="Capa 1"
     inkscape:groupmode="layer"
     id="layer1">
    <g
       id="g6443">
      <path
         style="fill:#f3c5ad;stroke:none"
         inkscape:connector-curvature="0"
         id="bezier2-3"
         d="m 279.43999,631.90368 c 35.94998,13.45686 43.00346,83.30904 15.73218,156.05412 C 267.9334,860.70288 216.6738,908.77704 180.75632,895.32018 144.80634,881.86331 137.75286,811.97863 165.02414,739.26606 192.26291,666.52098 243.52252,618.44681 279.43999,631.90368 Z m 0,0" />
      <path
         style="fill:#000000;stroke:none"
         inkscape:connector-curvature="0"
         id="bezier-0"
         d="m 196.05816,927.53438 0,55.5827 368.30853,0 0,-55.5827 -368.30853,0 z m 0,0" />
      <path
         style="fill:#1a1718;fill-opacity:0.3;stroke:none"
         inkscape:connector-curvature="0"
         id="bezier3-3"
         d="m 200.91543,876.52234 c -6.53099,-0.42845 -13.80254,-12.7832 -17.0439,-28.37225 0.13198,1.34669 0.30832,2.70551 0.52898,4.07646 2.70368,17.46738 10.66294,32.01189 17.7785,32.48112 7.14379,0.4531 10.67021,-13.30832 7.96653,-30.77571 -0.23677,-1.39919 -0.48568,-2.75403 -0.76282,-4.09277 1.60459,15.47489 -1.93628,27.11159 -8.46729,26.68315 l 0,0 z m 0,0" />
      <path
         style="fill:#f3c5ad;stroke:none"
         inkscape:connector-curvature="0"
         id="bezier4-9"
         d="m 476.79956,630.89827 c -35.94998,13.45687 -43.00346,83.30905 -15.73218,156.05413 27.23877,72.74508 78.49837,120.81924 114.41585,107.36237 35.94998,-13.45686 43.00346,-83.34154 15.73218,-156.05412 C 563.97664,665.51557 512.71703,617.44141 476.79956,630.89827 Z m 0,0" />
      <path
         style="fill:#1a1718;fill-opacity:0.3;stroke:none"
         inkscape:connector-curvature="0"
         id="bezier5-3"
         d="m 553.96525,871.26908 c -10.62897,0 -19.34018,-16.31726 -20.67287,-37.47769 -0.13001,1.82025 -0.19502,3.67301 -0.19502,5.55827 0,23.7933 9.32879,43.06847 20.83538,43.06847 11.5066,0 20.8679,-19.27517 20.8679,-43.06847 0,-1.88526 -0.0975,-3.73802 -0.22754,-5.55827 -1.30018,21.12793 -10.04389,37.47769 -20.60785,37.47769 l 0,0 z m 0,0" />
      <path
         inkscape:connector-curvature="0"
         id="bezier6-1"
         d="m 599.11401,715.70252 -63.57881,-90.265 -51.2271,23.53326 -4.55063,-14.85456 -204.48584,0 -3.51048,12.87178 -46.8715,-21.55048 -63.57881,90.265 81.22876,37.31518 -49.95943,181.47264 379.10003,0 -55.32266,-180.75755 82.75647,-38.03027 z m 0,0"
         style="fill:#4791bd;fill-opacity:1;stroke:none" />
      <path
         style="fill:#ffffff;stroke:none"
         inkscape:connector-curvature="0"
         id="bezier7-0"
         d="m 380.19617,729.61445 c 32.63452,0 59.09319,-26.42616 59.09319,-59.02818 0,-32.60201 -26.45867,-59.02818 -59.09319,-59.02818 -32.60202,0 -59.06068,26.42617 -59.06068,59.02818 0,32.60202 26.45866,59.02818 59.06068,59.02818 z m 0,0" />
      <path
         style="fill:#d5a691;stroke:none"
         inkscape:connector-curvature="0"
         id="bezier8-1"
         d="m 380.09866,718.98548 c 26.81621,0 48.52922,-20.28281 48.52922,-45.27877 0,-24.99597 -21.71301,-45.24627 -48.52922,-45.24627 -26.81622,0 -48.52923,20.2503 -48.52923,45.24627 0,24.99596 21.71301,45.27877 48.52923,45.27877 z m 0,0" />
      <path
         style="fill:#2c2723;stroke:none"
         inkscape:connector-curvature="0"
         id="bezier18-1"
         d="m 376.71819,941.44631 0,45.14875 3.47798,0 0,-45.14875 -3.47798,0 z m 0,0" />
      <path
         style="fill:#2c2723;stroke:none"
         inkscape:connector-curvature="0"
         id="bezier30-5"
         d="m 159.5556,1000.4745 c 8.6462,0 15.63466,-5.42827 15.63466,-12.1567 0,-6.69593 -6.98846,-12.15668 -15.63466,-12.15668 -8.6137,0 -15.63467,5.46075 -15.63467,12.15668 0,6.72843 7.02097,12.1567 15.63467,12.1567 z m 0,0" />
      <path
         style="fill:#2c2723;stroke:none"
         inkscape:connector-curvature="0"
         id="bezier31-9"
         d="m 183.90147,1000.4745 c 8.61369,0 15.63467,-5.42827 15.63467,-12.1567 0,-6.69593 -7.02098,-12.15668 -15.63467,-12.15668 -8.6462,0 -15.63467,5.46075 -15.63467,12.15668 0,6.72843 6.98847,12.1567 15.63467,12.1567 z m 0,0" />
      <path
         style="fill:#2c2723;stroke:none"
         inkscape:connector-curvature="0"
         id="bezier32-9"
         d="m 208.21484,1000.4745 c 8.6462,0 15.63467,-5.42827 15.63467,-12.1567 0,-6.69593 -6.98847,-12.15668 -15.63467,-12.15668 -8.6462,0 -15.63467,5.46075 -15.63467,12.15668 0,6.72843 6.98847,12.1567 15.63467,12.1567 z m 0,0" />
      <path
         style="fill:#2c2723;stroke:none"
         inkscape:connector-curvature="0"
         id="bezier33-8"
         d="m 236.00619,1000.4745 c 8.6462,0 15.63467,-5.42827 15.63467,-12.1567 0,-6.69593 -6.98847,-12.15668 -15.63467,-12.15668 -8.6462,0 -15.63467,5.46075 -15.63467,12.15668 0,6.72843 6.98847,12.1567 15.63467,12.1567 z m 0,0" />
      <path
         style="fill:#2c2723;stroke:none"
         inkscape:connector-curvature="0"
         id="bezier34-7"
         d="m 260.31956,1000.4745 c 8.6462,0 15.63467,-5.42827 15.63467,-12.1567 0,-6.69593 -6.98847,-12.15668 -15.63467,-12.15668 -8.61369,0 -15.63467,5.46075 -15.63467,12.15668 0,6.72843 7.02098,12.1567 15.63467,12.1567 z m 0,0" />
      <path
         style="fill:#2c2723;stroke:none"
         inkscape:connector-curvature="0"
         id="bezier35-5"
         d="m 284.66543,1000.4745 c 8.6137,0 15.63467,-5.42827 15.63467,-12.1567 0,-6.69593 -7.02097,-12.15668 -15.63467,-12.15668 -8.64619,0 -15.63466,5.46075 -15.63466,12.15668 0,6.72843 6.98847,12.1567 15.63466,12.1567 z m 0,0" />
      <path
         style="fill:#2c2723;stroke:none"
         inkscape:connector-curvature="0"
         id="bezier36-3"
         d="m 312.45678,1000.4745 c 8.6462,0 15.63467,-5.42827 15.63467,-12.1567 0,-6.69593 -6.98847,-12.15668 -15.63467,-12.15668 -8.64619,0 -15.63466,5.46075 -15.63466,12.15668 0,6.72843 6.98847,12.1567 15.63466,12.1567 z m 0,0" />
      <path
         style="fill:#2c2723;stroke:none"
         inkscape:connector-curvature="0"
         id="bezier37-3"
         d="m 336.77015,1000.4745 c 8.6462,0 15.63467,-5.42827 15.63467,-12.1567 0,-6.69593 -6.98847,-12.15668 -15.63467,-12.15668 -8.64619,0 -15.63466,5.46075 -15.63466,12.15668 0,6.72843 6.98847,12.1567 15.63466,12.1567 z m 0,0" />
      <path
         style="fill:#2c2723;stroke:none"
         inkscape:connector-curvature="0"
         id="bezier38-7"
         d="m 361.08352,1000.4745 c 8.6462,0 15.63467,-5.42827 15.63467,-12.1567 0,-6.69593 -6.98847,-12.15668 -15.63467,-12.15668 -8.61369,0 -15.63466,5.46075 -15.63466,12.15668 0,6.72843 7.02097,12.1567 15.63466,12.1567 z m 0,0" />
      <path
         style="fill:#2c2723;stroke:none"
         inkscape:connector-curvature="0"
         id="bezier39-5"
         d="m 395.83084,1000.4745 c 8.6462,0 15.63466,-5.42827 15.63466,-12.1567 0,-6.69593 -6.98846,-12.15668 -15.63466,-12.15668 -8.6137,0 -15.63467,5.46075 -15.63467,12.15668 0,6.72843 7.02097,12.1567 15.63467,12.1567 z m 0,0" />
      <path
         style="fill:#2c2723;stroke:none"
         inkscape:connector-curvature="0"
         id="bezier40-1"
         d="m 420.17671,1000.4745 c 8.61369,0 15.63467,-5.42827 15.63467,-12.1567 0,-6.69593 -7.02098,-12.15668 -15.63467,-12.15668 -8.6462,0 -15.63467,5.46075 -15.63467,12.15668 0,6.72843 6.98847,12.1567 15.63467,12.1567 z m 0,0" />
      <path
         style="fill:#2c2723;stroke:none"
         inkscape:connector-curvature="0"
         id="bezier41-6"
         d="m 444.49008,1000.4745 c 8.6462,0 15.63467,-5.42827 15.63467,-12.1567 0,-6.69593 -6.98847,-12.15668 -15.63467,-12.15668 -8.6462,0 -15.63467,5.46075 -15.63467,12.15668 0,6.72843 6.98847,12.1567 15.63467,12.1567 z m 0,0" />
      <path
         style="fill:#2c2723;stroke:none"
         inkscape:connector-curvature="0"
         id="bezier42-5"
         d="m 472.28143,1000.4745 c 8.6462,0 15.63467,-5.42827 15.63467,-12.1567 0,-6.69593 -6.98847,-12.15668 -15.63467,-12.15668 -8.6462,0 -15.63467,5.46075 -15.63467,12.15668 0,6.72843 6.98847,12.1567 15.63467,12.1567 z m 0,0" />
      <path
         style="fill:#2c2723;stroke:none"
         inkscape:connector-curvature="0"
         id="bezier43-0"
         d="m 496.5948,1000.4745 c 8.6462,0 15.63467,-5.42827 15.63467,-12.1567 0,-6.69593 -6.98847,-12.15668 -15.63467,-12.15668 -8.61369,0 -15.63467,5.46075 -15.63467,12.15668 0,6.72843 7.02098,12.1567 15.63467,12.1567 z m 0,0" />
      <path
         style="fill:#2c2723;stroke:none"
         inkscape:connector-curvature="0"
         id="bezier44-1"
         d="m 520.94067,1000.4745 c 8.6137,0 15.63467,-5.42827 15.63467,-12.1567 0,-6.69593 -7.02097,-12.15668 -15.63467,-12.15668 -8.64619,0 -15.63466,5.46075 -15.63466,12.15668 0,6.72843 6.98847,12.1567 15.63466,12.1567 z m 0,0" />
      <path
         style="fill:#2c2723;stroke:none"
         inkscape:connector-curvature="0"
         id="bezier45-2"
         d="m 548.73202,1000.4745 c 8.6137,0 15.63467,-5.42827 15.63467,-12.1567 0,-6.69593 -7.02097,-12.15668 -15.63467,-12.15668 -8.64619,0 -15.63466,5.46075 -15.63466,12.15668 0,6.72843 6.98847,12.1567 15.63466,12.1567 z m 0,0" />
      <path
         style="fill:#2c2723;stroke:none"
         inkscape:connector-curvature="0"
         id="bezier46-9"
         d="m 573.04539,1000.4745 c 8.6462,0 15.63467,-5.42827 15.63467,-12.1567 0,-6.69593 -6.98847,-12.15668 -15.63467,-12.15668 -8.64619,0 -15.63466,5.46075 -15.63466,12.15668 0,6.72843 6.98847,12.1567 15.63466,12.1567 z m 0,0" />
      <path
         style="fill:#2c2723;stroke:none"
         inkscape:connector-curvature="0"
         id="bezier47-9"
         d="m 597.35876,1000.4745 c 8.6462,0 15.63467,-5.42827 15.63467,-12.1567 0,-6.69593 -6.98847,-12.15668 -15.63467,-12.15668 -8.61369,0 -15.63466,5.46075 -15.63466,12.15668 0,6.72843 7.02097,12.1567 15.63466,12.1567 z m 0,0" />
      <path
         style="fill:#ffffff;stroke:none"
         inkscape:connector-curvature="0"
         id="bezier49-0"
         d="m 262.0748,941.44631 c -65.26904,0 -118.15387,21.74551 -118.15387,48.59423 l 236.27524,0 c 0,-26.84872 -52.88483,-48.59423 -118.12137,-48.59423 l 0,0 z m 0,0" />
      <path
         style="fill:#ffffff;stroke:none"
         inkscape:connector-curvature="0"
         id="bezier50-0"
         d="m 498.35004,941.44631 c -65.23654,0 -118.15387,21.74551 -118.15387,48.59423 l 236.27524,0 c 0,-26.84872 -52.88483,-48.59423 -118.12137,-48.59423 l 0,0 z m 0,0" />
    </g>
    <g
       id="g6417">
      <path
         style="fill:#f3c5ad;stroke:none"
         inkscape:connector-curvature="0"
         id="bezier9-4"
         d="m 67.190817,449.92186 c 25.902145,0.45212 47.263323,-20.17613 47.714873,-46.04578 0.45213,-25.90214 -20.17612,-47.26332 -46.078265,-47.71544 -25.902144,-0.45212 -47.263319,20.17612 -47.715443,46.07827 -0.451556,25.86965 20.176691,47.23082 46.078835,47.68295 z m 0,0" />
      <path
         style="fill:#f3c5ad;stroke:none"
         inkscape:connector-curvature="0"
         id="bezier10-5"
         d="m 678.63742,460.5947 c 25.90214,0.45212 47.26332,-20.17613 47.71487,-46.04578 0.45213,-25.90214 -20.17612,-47.26332 -46.07827,-47.71544 -25.90214,-0.45212 -47.26332,20.17612 -47.71544,46.07827 -0.45156,25.86965 20.17669,47.23082 46.07884,47.68295 z m 0,0" />
      <path
         id="bezier11-6"
         d="m 378.47343,674.06426 c 104.8895,-0.007 310.97059,-108.85759 310.97059,-243.10119 0,-134.2436 -139.21679,-243.06868 -310.97059,-243.06868 -171.7538,0 -310.970588,108.82508 -310.970588,243.06868 0,134.2436 215.252168,243.10704 310.970588,243.10119 z"
         inkscape:connector-curvature="0"
         style="fill:#ebc0a5;fill-opacity:1;stroke:none"
         sodipodi:nodetypes="sssss" />
      <path
         inkscape:connector-curvature="0"
         style="fill:#0a0a0a;fill-opacity:0.03137255;stroke:none"
         d="m 592.77563,500.42571 c -52.16973,0 -94.42812,42.51817 -94.42812,94.98044 0,15.84692 3.91705,30.74786 10.74173,43.88108 56.69718,-26.51344 112.76124,-66.5441 146.96859,-114.34984 -16.74547,-15.22098 -38.92232,-24.51168 -63.2822,-24.51168 z"
         id="bezier29-2" />
      <path
         inkscape:connector-curvature="0"
         style="fill:#0a0a0a;fill-opacity:0.03137255;stroke:none"
         d="m 164.17327,500.42571 c -23.98676,0 -45.86788,8.99936 -62.52038,23.80702 34.66433,47.20795 91.0568,86.86676 147.03844,113.51181 6.32922,-12.74889 9.9037,-27.11819 9.9037,-42.33839 0,-52.46227 -42.28454,-94.98044 -94.42176,-94.98044 z"
         id="bezier28-4" />
      <path
         inkscape:connector-curvature="0"
         id="bezier12-3"
         d="m 265.75612,438.75857 c -0.52927,30.32208 -23.43446,-39.38789 -53.17156,-39.90695 -29.7371,-0.51906 -55.06121,68.34906 -54.53194,38.02698 0.52814,-30.25708 25.07167,-54.40583 54.80877,-53.88677 29.7371,0.51907 53.42287,25.50966 52.89473,55.76674 l 0,0 z m 0,0"
         style="opacity:0.65;fill:#2d2017;fill-opacity:0.8627451;stroke:none;stroke-width:8.573;stroke-miterlimit:4;stroke-dasharray:none" />
      <path
         inkscape:connector-curvature="0"
         id="bezier13-5"
         d="m 612.59588,444.81268 c -0.52927,30.32208 -23.4345,-39.38789 -53.17159,-39.90695 -29.73709,-0.51906 -55.02871,68.34963 -54.49944,38.02754 0.52814,-30.25708 25.03918,-54.40639 54.77627,-53.88733 29.73709,0.51907 53.4229,25.50966 52.89476,55.76674 l 0,0 z m 0,0"
         style="opacity:0.65;fill:#2d2017;fill-opacity:0.8627451;stroke:none;stroke-width:8.573;stroke-miterlimit:4;stroke-dasharray:none" />
      <path
         inkscape:connector-curvature="0"
         id="bezier14-7"
         d="m 555.18647,349.69572 c 38.51197,0.67223 69.5742,27.70963 71.68509,61.36125 0.15667,-1.52521 0.28139,-3.08349 0.30862,-4.64346 0.62458,-35.78201 -31.53145,-65.34173 -71.8309,-66.04516 -40.26695,-0.70286 -73.46751,27.71606 -74.09209,63.49807 -0.0272,1.55997 0.043,3.12165 0.14637,4.6514 3.28347,-33.52495 35.27094,-59.49433 73.78291,-58.8221 l 0,0 z m 0,0"
         style="opacity:0.65;fill:#b29080;fill-opacity:1;stroke:none;stroke-width:8.573;stroke-miterlimit:4;stroke-dasharray:none" />
      <path
         inkscape:connector-curvature="0"
         id="bezier15-4"
         d="m 211.7917,343.70174 c 38.54444,0.6728 69.60664,27.7102 71.71754,61.36182 0.12415,-1.52577 0.24888,-3.08405 0.27611,-4.64403 0.62458,-35.78201 -31.53142,-65.34173 -71.83084,-66.04516 -40.26696,-0.70286 -73.43503,27.71663 -74.05961,63.49864 -0.0272,1.55997 0.0105,3.12108 0.11388,4.65083 3.28347,-33.52495 35.27093,-59.49433 73.78292,-58.8221 l 0,0 z m 0,0"
         style="opacity:0.65;fill:#b29080;fill-opacity:1;stroke:none;stroke-width:8.573;stroke-miterlimit:4;stroke-dasharray:none" />
      <path
         id="bezier16-3"
         d="m 69.498912,245.05505 c -0.234066,-3.35256 -0.337567,-6.73535 -0.278569,-10.11531 0.756754,-43.3544 25.990539,-82.83556 67.688637,-113.83694 12.38923,-8.80669 12.54775,-17.90776 -3.53121,-45.020434 28.05814,12.079375 28.65104,30.390974 33.6409,27.617244 5.78586,-2.9196 -4.01072,-25.951484 7.65473,-44.282755 0.12197,43.509605 46.41285,18.259706 55.79581,15.23756 45.37602,-14.487403 97.5604,-22.321565 153.00463,-21.353782 168.54269,2.941924 304.31588,85.967817 307.6945,186.676057 L 69.77688,229.13026 Z"
         style="fill:#2d2017;fill-opacity:1;stroke:none"
         inkscape:connector-curvature="0"
         sodipodi:nodetypes="cscccccsccc" />
      <path
         id="bezier17-7"
         d="M 691.254,235.06926 69.79754,224.22169 c 0,0 -7.579489,24.95317 -19.603479,-19.90294 -7.58198,30.26067 -2.540137,57.6953 -0.812023,86.46711 2.576429,42.89559 16.632028,127.84136 16.632028,127.84136 9.073538,-49.04445 32.876273,-122.52024 87.257104,-118.61237 41.85681,3.0079 61.76379,34.8167 30.93163,-17.69106 -15.39728,-26.22187 22.84276,-10.69861 34.94768,-15.30499 13.20216,-5.02389 49.39266,-25.16843 40.96174,-13.28465 -40.20432,56.66975 29.68132,-7.32453 44.9443,-9.99424 7.87419,-1.37729 52.66916,45.66861 50.44286,37.9441 -9.50774,-32.98839 -5.63548,-43.91887 4.9275,-44.64021 12.02141,-0.82091 63.17152,19.80457 68.7004,30.44675 11.84949,22.80833 -8.20037,-31.27695 3.8627,-30.42326 13.68976,0.9688 29.89928,-5.18933 34.86807,7.25691 17.10336,42.84188 11.66311,-3.7073 18.9197,-2.16788 1.934,0.41032 31.29649,75.48747 14.51805,4.84532 -2.151,-9.05636 13.69483,12.99438 22.23905,21.03396 15.77093,14.83945 33.09464,29.61053 33.09464,29.61053 0,0 -8.19093,-38.43902 8.80792,-33.20054 26.07073,8.03413 53.49691,9.38323 45.38598,36.75512 -18.16732,61.30928 -1.99409,13.89693 25.05528,22.15301 37.89881,11.5676 46.31859,63.74241 51.98185,106.1277 0,0 24.07916,-76.61735 30.07984,-116.16266 5.34636,-35.23318 10.40406,-72.47158 5.10902,-106.78732 -9.81776,30.15708 -31.79538,28.53782 -31.79538,28.53782 z"
         inkscape:connector-curvature="0"
         style="fill:#2d2017;fill-opacity:1;stroke:none"
         sodipodi:nodetypes="cccacssssssssssssscssscscc" />
      <path
         inkscape:connector-curvature="0"
         id="bezier19-4"
         d="m 377.93251,465.7489 c 8.41739,0.14692 15.33291,6.24938 16.78697,14.20706 0.24735,-1.13351 0.39721,-2.26873 0.4182,-3.47121 0.16735,-9.58737 -7.46447,-17.49034 -17.08434,-17.65826 -9.58736,-0.16735 -17.49033,7.46447 -17.65768,17.05184 -0.021,1.20248 0.0891,2.34223 0.2968,3.48369 1.73089,-7.9021 8.85517,-13.75948 17.24005,-13.61312 l 0,0 z m 0,0"
         style="opacity:0.65;fill:#2d2017;fill-opacity:0.62745098;stroke:none;stroke-width:8.573;stroke-miterlimit:4;stroke-dasharray:none" />
      <path
         style="fill:#f6742c;fill-opacity:0.45490196;stroke:none"
         inkscape:connector-curvature="0"
         id="bezier20-5"
         d="m 576.31289,549.11988 c 6.72741,0.11743 12.25014,-5.24776 12.367,-11.94266 0.11742,-6.72742 -5.21526,-12.24958 -11.94267,-12.36701 -6.72741,-0.11742 -12.24957,5.21526 -12.367,11.94268 -0.11686,6.6949 5.21526,12.24956 11.94267,12.36699 z m 0,0" />
      <path
         style="fill:#f6742c;fill-opacity:0.45490196;stroke:none"
         inkscape:connector-curvature="0"
         id="bezier21-7"
         d="m 596.90287,563.36081 c 2.89246,0.0505 5.27328,-2.24863 5.3232,-5.10859 0.0505,-2.89246 -2.24921,-5.24077 -5.14167,-5.29126 -2.85995,-0.0499 -5.2402,2.2167 -5.29069,5.10916 -0.0499,2.85997 2.24921,5.24077 5.10916,5.29069 z m 0,0" />
      <path
         style="fill:#f6742c;fill-opacity:0.45490196;stroke:none"
         inkscape:connector-curvature="0"
         id="bezier22-3"
         d="m 550.00601,562.54223 c 3.83496,0.0669 7.00937,-2.99856 7.07631,-6.83351 0.0669,-3.83494 -2.99912,-6.97686 -6.83408,-7.0438 -3.83494,-0.0669 -7.00879,2.96606 -7.07573,6.80101 -0.0669,3.83494 2.99856,7.00936 6.8335,7.0763 z m 0,0" />
      <path
         style="fill:#f6742c;fill-opacity:0.45490196;stroke:none"
         inkscape:connector-curvature="0"
         id="bezier23-6"
         d="m 565.699,559.33764 c 0.97499,0.017 1.76859,-0.74936 1.78504,-1.69185 0.017,-0.97498 -0.74935,-1.76858 -1.72434,-1.7856 -0.94248,-0.0164 -1.73609,0.74992 -1.75311,1.7249 -0.0164,0.94249 0.74993,1.7361 1.69241,1.75255 z m 0,0" />
      <path
         style="fill:#f6742c;fill-opacity:0.45490196;stroke:none"
         inkscape:connector-curvature="0"
         id="bezier24-8"
         d="m 194.15064,542.44921 c 6.72741,0.11743 12.25014,-5.24776 12.367,-11.94266 0.11743,-6.72742 -5.21526,-12.24958 -11.94268,-12.367 -6.6949,-0.11686 -12.24956,5.21526 -12.36699,11.94267 -0.11686,6.6949 5.24777,12.25013 11.94267,12.36699 z m 0,0" />
      <path
         style="fill:#f6742c;fill-opacity:0.45490196;stroke:none"
         inkscape:connector-curvature="0"
         id="bezier25-5"
         d="m 214.77313,556.69071 c 2.85995,0.0499 5.24077,-2.24919 5.29069,-5.10916 0.0505,-2.89246 -2.24921,-5.24077 -5.10916,-5.29069 -2.89246,-0.0505 -5.27271,2.21613 -5.3232,5.10859 -0.0499,2.85997 2.24921,5.24078 5.14167,5.29126 z m 0,0" />
      <path
         style="fill:#f6742c;fill-opacity:0.45490196;stroke:none"
         inkscape:connector-curvature="0"
         id="bezier26-6"
         d="m 164.39881,555.81143 c 3.83496,0.0669 6.97687,-2.99913 7.04381,-6.83407 0.0669,-3.83495 -2.96662,-6.9763 -6.80158,-7.04324 -3.83494,-0.0669 -7.00879,2.96606 -7.07573,6.80101 -0.0669,3.83494 2.99856,7.00936 6.8335,7.0763 z m 0,0" />
      <path
         style="fill:#f6742c;fill-opacity:0.45490196;stroke:none"
         inkscape:connector-curvature="0"
         id="bezier27-4"
         d="m 180.0918,552.60684 c 0.94249,0.0164 1.73609,-0.74993 1.75255,-1.69241 0.017,-0.97498 -0.74936,-1.76859 -1.69185,-1.78504 -0.97498,-0.017 -1.76859,0.74936 -1.78561,1.72434 -0.0165,0.94249 0.74993,1.73609 1.72491,1.75311 z m 0,0" />
      <path
         inkscape:connector-curvature="0"
         id="bezier48-0"
         d="m 377.44749,493.53601 c 78.68142,1.37339 142.56751,-4.501 142.7184,-13.14589 0.15033,-8.61238 -63.49182,-16.71279 -142.17324,-18.08618 -78.64892,-1.37282 -142.53502,4.50158 -142.68535,13.11396 -0.15089,8.64488 63.49127,16.74529 142.14019,18.11811 z m 0,0"
         style="fill:#191919;fill-opacity:0.03137255;stroke:none" />
      <path
         sodipodi:nodetypes="cccscccsssssccscscccccssssssssssssscssscc"
         style="fill:#000000;fill-opacity:0.31012657;stroke:none"
         inkscape:connector-curvature="0"
         d="m 552.24392,226.9268 c -28.86374,-12.3909 -6.00807,-24.98132 -44.17255,-104.76161 6.02351,61.58999 -8.82791,50.75997 -8.82791,50.75997 0,0 -9.47746,-17.69136 -19.08315,-33.94161 -13.68213,-23.14647 -27.6245,-43.369151 -14.80944,-5.37835 8.68372,38.79603 -21.31111,29.48452 -21.31111,29.48452 0,0 -16.99529,-20.83547 -3.24996,-66.294786 5.18644,-17.036342 -10.04304,4.601856 -19.84193,26.228096 -9.38446,20.71155 -8.18521,37.95596 -12.0925,37.95074 -3.23981,-0.004 -2.98191,-11.25066 -5.48499,-23.1023 -3.87541,-18.34937 -17.42529,-38.132521 -18.84598,-33.03934 -0.5103,1.82955 4.26348,12.1532 5.43953,21.84786 2.86657,23.63001 -24.71296,36.29897 -24.71296,36.29897 0,0 -42.06029,-11.68076 -21.26693,-49.47324 6.25069,-8.7689 -12.48992,1.63048 -23.03026,16.82013 -10.37428,14.95033 -15.22073,35.07211 -15.22073,35.07211 0,0 -27.60361,-2.06387 -8.68958,-56.86107 3.30512,-9.575532 -13.13683,12.04222 -22.24797,29.33522 -5.02364,10.07369 -11.10523,32.10508 -11.10523,32.10508 0,0 -16.73127,-12.71727 -11.55793,-31.38036 -16.12574,11.04857 3.38276,64.93181 -41.53242,82.29603 C 120.0703,248.14305 71.4227,289.65034 66.014066,418.62722 75.087604,369.58277 98.890339,296.10698 153.27117,300.01485 c 41.85681,3.0079 61.76379,34.8167 30.93163,-17.69106 -15.39728,-26.22187 22.84276,-10.69861 34.94768,-15.30499 13.20216,-5.02389 49.39266,-25.16843 40.96174,-13.28465 -40.20432,56.66975 29.68132,-7.32453 44.9443,-9.99424 7.87419,-1.37729 52.66916,45.66861 50.44286,37.9441 -9.50774,-32.98839 -5.63548,-43.91887 4.9275,-44.64021 12.02141,-0.82091 63.17152,19.80457 68.7004,30.44675 11.84949,22.80833 -8.20037,-31.27695 3.8627,-30.42326 13.68976,0.9688 29.89928,-5.18933 34.86807,7.25691 17.10336,42.84188 11.66311,-3.7073 18.9197,-2.16788 1.934,0.41032 31.29649,75.48747 14.51805,4.84532 -2.151,-9.05636 13.69483,12.99438 22.23905,21.03396 15.77093,14.83945 33.09464,29.61053 33.09464,29.61053 0,0 -8.19093,-38.43902 8.80792,-33.20054 26.07073,8.03413 53.49691,9.38323 45.38598,36.75512 -18.16732,61.30928 -1.99409,13.89693 25.05528,22.15301 37.89881,11.5676 46.31859,63.74241 51.98185,106.1277 C 684.8291,353.08217 670.29219,260.16491 552.24392,226.9268 Z"
         id="path4248-3" />
      <path
         sodipodi:nodetypes="czssc"
         style="opacity:0.65;fill:none;stroke:#2d2017;stroke-width:8.573;stroke-miterlimit:4;stroke-opacity:0.8627451;stroke-dasharray:none"
         inkscape:connector-curvature="0"
         d="m 453.93932,571.63635 c -0.38774,22.21337 -42.52031,43.76308 -75.875,43.01407 -33.35469,-0.74898 -73.21998,-23.42926 -72.83282,-45.60978 0.39061,-22.37766 33.94548,-39.87047 75.05997,-39.15281 41.11451,0.71765 74.03845,19.37085 73.64785,41.74852 z"
         stroke-miterlimit="4"
         id="bezier52-0" />
      <path
         inkscape:connector-curvature="0"
         style="fill:#ebc0a5;fill-opacity:1;stroke:none"
         d="m 272.75977,518.16471 -1.20705,69.15191 211.92959,3.69924 1.20705,-69.1519 -211.92959,-3.69925 z m 0,0"
         id="bezier53-3" />
    </g>
  </g>
</svg>
